<?xml version="1.0" encoding="UTF-8" standalone="no"?>
<!DOCTYPE svg PUBLIC "-//W3C//DTD SVG 1.1//EN" "http://www.w3.org/Graphics/SVG/1.1/DTD/svg11.dtd">
<svg width="100%" height="100%" viewBox="0 0 1447 387" version="1.1" xmlns="http://www.w3.org/2000/svg" xmlns:xlink="http://www.w3.org/1999/xlink" xml:space="preserve" xmlns:serif="http://www.serif.com/" style="fill-rule:evenodd;clip-rule:evenodd;stroke-linejoin:round;stroke-miterlimit:2;">
    <g transform="matrix(1,0,0,1,-76.7234,-298.417)">
        <g id="ArtBoard1" transform="matrix(3.45504,0,0,5.60107,283.313,656.479)">
            <rect x="-82" y="-74" width="923" height="747" style="fill:none;"/>
            <g transform="matrix(-0.389203,0,0,0.246695,187.419,-85.1432)">
                <path d="M231.745,86C231.745,86 191.827,122.926 174.225,138C160.377,149.859 120.187,189.926 110.203,208C101.137,224.412 96.893,246.137 105.201,274C111.867,296.354 167.049,331.541 196.233,299C225.416,266.459 211.68,309.233 197.233,346C182.786,382.767 218.705,357 229.5,357C240.295,357 276.442,382.767 262,346C247.558,309.233 233.827,266.459 263,299C292.173,331.541 347.336,296.354 354,274C362.306,246.137 358.063,224.412 349,208C339.019,189.926 298.843,149.859 285,138C267.404,122.926 231.745,86 231.745,86Z" style="fill:white;"/>
            </g>
            <g transform="matrix(0.384306,0,0,0.237662,-97.8397,-170.4)">
                <path d="M185,738C175.096,735.374 197.566,704.086 206,681C210.248,669.372 220.752,625.291 213,634C206.201,641.638 188.147,655.774 162,655C135.853,654.226 98.812,635.811 99,601C99.188,566.189 128.892,541.439 155,542C181.108,542.561 191.662,548.028 186,542C180.845,536.512 168.071,529.014 167,509C165.929,488.986 173.452,472.946 186,464C201.556,452.91 214.139,448 229.644,448C246.149,448 257.477,452.91 273.028,464C285.572,472.946 293.093,488.986 292.022,509C290.951,529.014 278.182,536.512 273.028,542C267.368,548.028 277.919,542.561 304.018,542C330.117,541.439 359.811,566.189 359.999,601C360.186,635.811 323.158,654.226 297.02,655C270.882,655.774 252.835,641.638 246.038,634C238.288,625.291 246.568,661.151 252.038,679C257.94,698.257 282.032,735.257 274.028,738C273.103,738.317 187.785,738.738 185,738Z" style="fill:white;"/>
            </g>
            <g transform="matrix(0.359492,0,0,0.236358,-4.85977,-87.7965)">
                <path d="M577.5,393C579.147,389.193 634.443,323.368 646,310C665.094,287.913 718.32,227.088 717,180C715.68,132.912 678.341,102.246 649,103C619.659,103.754 599.146,116.463 587,144C580.257,159.288 579.252,158.664 577.5,159C575.748,158.664 572.944,159.961 568.002,144C558.857,114.463 535.35,101.754 506.016,101C476.681,100.246 439.35,132.912 438.031,180C436.711,227.088 494.813,298.047 509.017,312C518.311,321.129 576.526,390.332 577.5,393Z" style="fill:rgb(225,75,75);"/>
            </g>
            <g transform="matrix(0.385781,0,0,0.19066,-42.3758,-69.8375)">
                <path d="M912,393C912,393 964.132,313.593 979,294.51C993.868,275.428 1039.95,214.909 1040,210C1040.06,204.091 987.982,139.938 975,121.752C958.769,99.014 917.679,30.541 912,31C906.325,31.459 858.197,104.143 845,122.745C835.67,135.895 779.651,203.377 780,210C780.291,215.522 837.644,282.128 845,293C852.356,303.872 912,393 912,393Z" style="fill:rgb(225,75,75);"/>
            </g>
        </g>
    </g>
</svg>
