<?xml version="1.0" encoding="UTF-8" standalone="no"?>
<!DOCTYPE svg PUBLIC "-//W3C//DTD SVG 1.1//EN" "http://www.w3.org/Graphics/SVG/1.1/DTD/svg11.dtd">
<svg width="100%" height="100%" viewBox="0 0 767 1013" version="1.1" xmlns="http://www.w3.org/2000/svg" xmlns:xlink="http://www.w3.org/1999/xlink" xml:space="preserve" xmlns:serif="http://www.serif.com/" style="fill-rule:evenodd;clip-rule:evenodd;stroke-linejoin:round;stroke-miterlimit:2;">
    <g transform="matrix(1,0,0,1,-264,-2971)">
        <g id="ArtBoard1" transform="matrix(3.45504,0,0,5.60107,283.313,414.479)">
            <rect x="-82" y="-74" width="923" height="747" style="fill:none;"/>
            <g>
                <g transform="matrix(1.04265,0,0,0.429254,3.49702,397.323)">
                    <g transform="matrix(0.277594,0,0,0.415924,-70.0637,-91.8844)">
                        <path d="M988,663.3C988,601.872 938.128,552 876.7,552L357.3,552C295.872,552 246,601.872 246,663.3L246,1428.7C246,1490.13 295.872,1540 357.3,1540L876.7,1540C938.128,1540 988,1490.13 988,1428.7L988,663.3Z" style="fill:rgb(173,207,221);"/>
                    </g>
                    <g transform="matrix(0.277594,0,0,0.415924,-77.0033,-81.4866)">
                        <path d="M988,663.3C988,601.872 938.128,552 876.7,552L357.3,552C295.872,552 246,601.872 246,663.3L246,1428.7C246,1490.13 295.872,1540 357.3,1540L876.7,1540C938.128,1540 988,1490.13 988,1428.7L988,663.3Z" style="fill:rgb(235,235,235);"/>
                    </g>
                </g>
                <g transform="matrix(1.18576,0,0,0.488172,1.96306,387.226)">
                    <g transform="matrix(0.301396,0,0,0.456853,-92.1717,-253.875)">
                        <text x="334.009px" y="1008px" style="font-family:'ArialRoundedMTBold', 'Arial Rounded MT Bold', sans-serif;font-size:83.763px;">10</text>
                    </g>
                    <g transform="matrix(0.0994446,0,0,0.145558,0.873817,149.556)">
                        <path d="M185,738C175.096,735.374 197.566,704.086 206,681C210.248,669.372 220.752,625.291 213,634C206.201,641.638 188.147,655.774 162,655C135.853,654.226 98.812,635.811 99,601C99.188,566.189 128.892,541.439 155,542C181.108,542.561 191.662,548.028 186,542C180.845,536.512 168.071,529.014 167,509C165.929,488.986 173.452,472.946 186,464C201.556,452.91 214.139,448 229.644,448C246.149,448 257.477,452.91 273.028,464C285.572,472.946 293.093,488.986 292.022,509C290.951,529.014 278.182,536.512 273.028,542C267.368,548.028 277.919,542.561 304.018,542C330.117,541.439 359.811,566.189 359.999,601C360.186,635.811 323.158,654.226 297.02,655C270.882,655.774 252.835,641.638 246.038,634C238.288,625.291 246.568,661.151 252.038,679C257.94,698.257 282.032,735.257 274.028,738C273.103,738.317 187.785,738.738 185,738Z" style="fill:rgb(13,13,13);"/>
                    </g>
                </g>
                <g transform="matrix(-1.18538,-4.1313e-16,4.48276e-16,-0.488019,203.05,711.284)">
                    <g transform="matrix(0.301491,-1.99904e-16,1.3547e-16,0.456997,-92.2081,-256.149)">
                        <text x="334.009px" y="1008px" style="font-family:'ArialRoundedMTBold', 'Arial Rounded MT Bold', sans-serif;font-size:83.763px;">10</text>
                    </g>
                    <g transform="matrix(0.0994759,-6.59579e-17,4.31622e-17,0.145604,0.870719,149.536)">
                        <path d="M185,738C175.096,735.374 197.566,704.086 206,681C210.248,669.372 220.752,625.291 213,634C206.201,641.638 188.147,655.774 162,655C135.853,654.226 98.812,635.811 99,601C99.188,566.189 128.892,541.439 155,542C181.108,542.561 191.662,548.028 186,542C180.845,536.512 168.071,529.014 167,509C165.929,488.986 173.452,472.946 186,464C201.556,452.91 214.139,448 229.644,448C246.149,448 257.477,452.91 273.028,464C285.572,472.946 293.093,488.986 292.022,509C290.951,529.014 278.182,536.512 273.028,542C267.368,548.028 277.919,542.561 304.018,542C330.117,541.439 359.811,566.189 359.999,601C360.186,635.811 323.158,654.226 297.02,655C270.882,655.774 252.835,641.638 246.038,634C238.288,625.291 246.568,661.151 252.038,679C257.94,698.257 282.032,735.257 274.028,738C273.103,738.317 187.785,738.738 185,738Z" style="fill:rgb(13,13,13);"/>
                    </g>
                </g>
                <g transform="matrix(0.37337,0,0,0.230899,19.7192,412.124)">
                    <path d="M185,738C175.096,735.374 197.566,704.086 206,681C210.248,669.372 220.752,625.291 213,634C206.201,641.638 188.147,655.774 162,655C135.853,654.226 98.812,635.811 99,601C99.188,566.189 128.892,541.439 155,542C181.108,542.561 191.662,548.028 186,542C180.845,536.512 168.071,529.014 167,509C165.929,488.986 173.452,472.946 186,464C201.556,452.91 214.139,448 229.644,448C246.149,448 257.477,452.91 273.028,464C285.572,472.946 293.093,488.986 292.022,509C290.951,529.014 278.182,536.512 273.028,542C267.368,548.028 277.919,542.561 304.018,542C330.117,541.439 359.811,566.189 359.999,601C360.186,635.811 323.158,654.226 297.02,655C270.882,655.774 252.835,641.638 246.038,634C238.288,625.291 246.568,661.151 252.038,679C257.94,698.257 282.032,735.257 274.028,738C273.103,738.317 187.785,738.738 185,738Z" style="fill:rgb(13,13,13);"/>
                </g>
            </g>
        </g>
    </g>
</svg>
