<?xml version="1.0" encoding="UTF-8" standalone="no"?>
<!DOCTYPE svg PUBLIC "-//W3C//DTD SVG 1.1//EN" "http://www.w3.org/Graphics/SVG/1.1/DTD/svg11.dtd">
<svg width="100%" height="100%" viewBox="0 0 767 1013" version="1.1" xmlns="http://www.w3.org/2000/svg" xmlns:xlink="http://www.w3.org/1999/xlink" xml:space="preserve" xmlns:serif="http://www.serif.com/" style="fill-rule:evenodd;clip-rule:evenodd;stroke-linejoin:round;stroke-miterlimit:2;">
    <g transform="matrix(1,0,0,1,-264,-1686)">
        <g id="ArtBoard1" transform="matrix(3.45504,0,0,5.60107,283.313,414.479)">
            <rect x="-82" y="-74" width="923" height="747" style="fill:none;"/>
            <g>
                <g transform="matrix(1.04265,0,0,0.429254,3.49702,167.903)">
                    <g transform="matrix(0.277594,0,0,0.415924,-70.0637,-91.8844)">
                        <path d="M988,663.3C988,601.872 938.128,552 876.7,552L357.3,552C295.872,552 246,601.872 246,663.3L246,1428.7C246,1490.13 295.872,1540 357.3,1540L876.7,1540C938.128,1540 988,1490.13 988,1428.7L988,663.3Z" style="fill:rgb(173,207,221);"/>
                    </g>
                    <g transform="matrix(0.277594,0,0,0.415924,-77.0033,-81.4866)">
                        <path d="M988,663.3C988,601.872 938.128,552 876.7,552L357.3,552C295.872,552 246,601.872 246,663.3L246,1428.7C246,1490.13 295.872,1540 357.3,1540L876.7,1540C938.128,1540 988,1490.13 988,1428.7L988,663.3Z" style="fill:rgb(235,235,235);"/>
                    </g>
                </g>
                <g transform="matrix(1.18576,0,0,0.488172,1.96306,157.806)">
                    <g transform="matrix(0.393295,0,0,0.596153,-118.276,-390.057)">
                        <text x="334.009px" y="1008px" style="font-family:'ArialRoundedMTBold', 'Arial Rounded MT Bold', sans-serif;font-size:83.763px;">7</text>
                    </g>
                    <g transform="matrix(0.0930236,0,0,0.14476,-30.0264,200.148)">
                        <path d="M577.5,393C579.147,389.193 634.443,323.368 646,310C665.094,287.913 718.32,227.088 717,180C715.68,132.912 678.341,102.246 649,103C619.659,103.754 599.146,116.463 587,144C580.257,159.288 579.252,158.664 577.5,159C575.748,158.664 572.944,159.961 568.002,144C558.857,114.463 535.35,101.754 506.016,101C476.681,100.246 439.35,132.912 438.031,180C436.711,227.088 494.813,298.047 509.017,312C518.311,321.129 576.526,390.332 577.5,393Z" style="fill:rgb(225,75,75);"/>
                    </g>
                </g>
                <g transform="matrix(-1.18538,-4.1313e-16,4.48276e-16,-0.488019,203.05,481.863)">
                    <g transform="matrix(0.393295,0,0,0.596153,-118.276,-390.408)">
                        <text x="334.009px" y="1008px" style="font-family:'ArialRoundedMTBold', 'Arial Rounded MT Bold', sans-serif;font-size:83.763px;">7</text>
                    </g>
                    <g transform="matrix(0.0930529,-6.16991e-17,4.29253e-17,0.144805,-30.0392,201.239)">
                        <path d="M577.5,393C579.147,389.193 634.443,323.368 646,310C665.094,287.913 718.32,227.088 717,180C715.68,132.912 678.341,102.246 649,103C619.659,103.754 599.146,116.463 587,144C580.257,159.288 579.252,158.664 577.5,159C575.748,158.664 572.944,159.961 568.002,144C558.857,114.463 535.35,101.754 506.016,101C476.681,100.246 439.35,132.912 438.031,180C436.711,227.088 494.813,298.047 509.017,312C518.311,321.129 576.526,390.332 577.5,393Z" style="fill:rgb(225,75,75);"/>
                    </g>
                </g>
                <g transform="matrix(0.349262,0,0,0.229632,-96.2973,262.957)">
                    <path d="M577.5,393C579.147,389.193 634.443,323.368 646,310C665.094,287.913 718.32,227.088 717,180C715.68,132.912 678.341,102.246 649,103C619.659,103.754 599.146,116.463 587,144C580.257,159.288 579.252,158.664 577.5,159C575.748,158.664 572.944,159.961 568.002,144C558.857,114.463 535.35,101.754 506.016,101C476.681,100.246 439.35,132.912 438.031,180C436.711,227.088 494.813,298.047 509.017,312C518.311,321.129 576.526,390.332 577.5,393Z" style="fill:rgb(225,75,75);"/>
                </g>
            </g>
        </g>
    </g>
</svg>
