<?xml version="1.0" encoding="UTF-8" standalone="no"?>
<!DOCTYPE svg PUBLIC "-//W3C//DTD SVG 1.1//EN" "http://www.w3.org/Graphics/SVG/1.1/DTD/svg11.dtd">
<svg width="100%" height="100%" viewBox="0 0 767 1013" version="1.1" xmlns="http://www.w3.org/2000/svg" xmlns:xlink="http://www.w3.org/1999/xlink" xml:space="preserve" xmlns:serif="http://www.serif.com/" style="fill-rule:evenodd;clip-rule:evenodd;stroke-linejoin:round;stroke-miterlimit:2;">
    <g transform="matrix(1,0,0,1,-1211,-1686)">
        <g id="ArtBoard1" transform="matrix(3.45504,0,0,5.60107,283.313,414.479)">
            <rect x="-82" y="-74" width="923" height="747" style="fill:none;"/>
            <g>
                <g transform="matrix(1.04265,0,0,0.429254,277.59,167.903)">
                    <g transform="matrix(0.277594,0,0,0.415924,-70.0637,-91.8844)">
                        <path d="M988,663.3C988,601.872 938.128,552 876.7,552L357.3,552C295.872,552 246,601.872 246,663.3L246,1428.7C246,1490.13 295.872,1540 357.3,1540L876.7,1540C938.128,1540 988,1490.13 988,1428.7L988,663.3Z" style="fill:rgb(173,207,221);"/>
                    </g>
                    <g transform="matrix(0.277594,0,0,0.415924,-77.0033,-81.4866)">
                        <path d="M988,663.3C988,601.872 938.128,552 876.7,552L357.3,552C295.872,552 246,601.872 246,663.3L246,1428.7C246,1490.13 295.872,1540 357.3,1540L876.7,1540C938.128,1540 988,1490.13 988,1428.7L988,663.3Z" style="fill:rgb(235,235,235);"/>
                    </g>
                </g>
                <g transform="matrix(1.18576,0,0,0.488172,276.056,157.806)">
                    <g transform="matrix(0.393295,0,0,0.596153,-117.448,-390.008)">
                        <text x="334.009px" y="1008px" style="font-family:'ArialRoundedMTBold', 'Arial Rounded MT Bold', sans-serif;font-size:83.763px;">8</text>
                    </g>
                    <g transform="matrix(0.0998264,0,0,0.116772,-67.1457,211.147)">
                        <path d="M912,393C912,393 964.132,313.593 979,294.51C993.868,275.428 1039.95,214.909 1040,210C1040.06,204.091 987.982,139.938 975,121.752C958.769,99.014 917.679,30.541 912,31C906.325,31.459 858.197,104.143 845,122.745C835.67,135.895 779.651,203.377 780,210C780.291,215.522 837.644,282.128 845,293C852.356,303.872 912,393 912,393Z" style="fill:rgb(225,75,75);"/>
                    </g>
                </g>
                <g transform="matrix(-1.18538,-4.1313e-16,4.48276e-16,-0.488019,477.143,481.863)">
                    <g transform="matrix(0.393295,0,0,0.596153,-117.448,-390.408)">
                        <text x="334.009px" y="1008px" style="font-family:'ArialRoundedMTBold', 'Arial Rounded MT Bold', sans-serif;font-size:83.763px;">8</text>
                    </g>
                    <g transform="matrix(0.0998578,-6.62111e-17,3.46262e-17,0.116809,-67.1784,212.242)">
                        <path d="M912,393C912,393 964.132,313.593 979,294.51C993.868,275.428 1039.95,214.909 1040,210C1040.06,204.091 987.982,139.938 975,121.752C958.769,99.014 917.679,30.541 912,31C906.325,31.459 858.197,104.143 845,122.745C835.67,135.895 779.651,203.377 780,210C780.291,215.522 837.644,282.128 845,293C852.356,303.872 912,393 912,393Z" style="fill:rgb(225,75,75);"/>
                    </g>
                </g>
                <g transform="matrix(0.374804,0,0,0.185235,38.4287,280.405)">
                    <path d="M912,393C912,393 964.132,313.593 979,294.51C993.868,275.428 1039.95,214.909 1040,210C1040.06,204.091 987.982,139.938 975,121.752C958.769,99.014 917.679,30.541 912,31C906.325,31.459 858.197,104.143 845,122.745C835.67,135.895 779.651,203.377 780,210C780.291,215.522 837.644,282.128 845,293C852.356,303.872 912,393 912,393Z" style="fill:rgb(225,75,75);"/>
                </g>
            </g>
        </g>
    </g>
</svg>
