<?xml version="1.0" encoding="UTF-8" standalone="no"?>
<!DOCTYPE svg PUBLIC "-//W3C//DTD SVG 1.1//EN" "http://www.w3.org/Graphics/SVG/1.1/DTD/svg11.dtd">
<svg width="100%" height="100%" viewBox="0 0 767 1013" version="1.1" xmlns="http://www.w3.org/2000/svg" xmlns:xlink="http://www.w3.org/1999/xlink" xml:space="preserve" xmlns:serif="http://www.serif.com/" style="fill-rule:evenodd;clip-rule:evenodd;stroke-linejoin:round;stroke-miterlimit:2;">
    <g transform="matrix(1,0,0,1,-2163,-1686)">
        <g id="ArtBoard1" transform="matrix(3.45504,0,0,5.60107,283.313,414.479)">
            <rect x="-82" y="-74" width="923" height="747" style="fill:none;"/>
            <g>
                <g transform="matrix(1.04265,0,0,0.429254,553.129,167.903)">
                    <g transform="matrix(0.277594,0,0,0.415924,-70.0637,-91.8844)">
                        <path d="M988,663.3C988,601.872 938.128,552 876.7,552L357.3,552C295.872,552 246,601.872 246,663.3L246,1428.7C246,1490.13 295.872,1540 357.3,1540L876.7,1540C938.128,1540 988,1490.13 988,1428.7L988,663.3Z" style="fill:rgb(173,207,221);"/>
                    </g>
                    <g transform="matrix(0.277594,0,0,0.415924,-77.0033,-81.4866)">
                        <path d="M988,663.3C988,601.872 938.128,552 876.7,552L357.3,552C295.872,552 246,601.872 246,663.3L246,1428.7C246,1490.13 295.872,1540 357.3,1540L876.7,1540C938.128,1540 988,1490.13 988,1428.7L988,663.3Z" style="fill:rgb(235,235,235);"/>
                    </g>
                </g>
                <g transform="matrix(1.18576,0,0,0.488172,551.595,157.806)">
                    <g transform="matrix(0.393295,0,0,0.596153,-117.142,-390.057)">
                        <text x="334.009px" y="1008px" style="font-family:'ArialRoundedMTBold', 'Arial Rounded MT Bold', sans-serif;font-size:83.763px;">9</text>
                    </g>
                    <g transform="matrix(-0.100712,0,0,0.151091,46.8197,201.773)">
                        <path d="M231.745,86C231.745,86 191.827,122.926 174.225,138C160.377,149.859 120.187,189.926 110.203,208C101.137,224.412 96.893,246.137 105.201,274C111.867,296.354 167.049,331.541 196.233,299C225.416,266.459 211.68,309.233 197.233,346C182.786,382.767 218.705,357 229.5,357C240.295,357 276.442,382.767 262,346C247.558,309.233 233.827,266.459 263,299C292.173,331.541 347.336,296.354 354,274C362.306,246.137 358.063,224.412 349,208C339.019,189.926 298.843,149.859 285,138C267.404,122.926 231.745,86 231.745,86Z" style="fill:rgb(13,13,13);"/>
                    </g>
                </g>
                <g transform="matrix(-1.18538,-4.1313e-16,4.48276e-16,-0.488019,752.683,481.863)">
                    <g transform="matrix(0.393295,-7.75637e-32,5.87852e-32,0.596153,-117.142,-389.914)">
                        <text x="334.009px" y="1008px" style="font-family:'ArialRoundedMTBold', 'Arial Rounded MT Bold', sans-serif;font-size:83.763px;">9</text>
                    </g>
                    <g transform="matrix(-0.100744,6.67985e-17,4.48028e-17,0.151139,46.8311,202.865)">
                        <path d="M231.745,86C231.745,86 191.827,122.926 174.225,138C160.377,149.859 120.187,189.926 110.203,208C101.137,224.412 96.893,246.137 105.201,274C111.867,296.354 167.049,331.541 196.233,299C225.416,266.459 211.68,309.233 197.233,346C182.786,382.767 218.705,357 229.5,357C240.295,357 276.442,382.767 262,346C247.558,309.233 233.827,266.459 263,299C292.173,331.541 347.336,296.354 354,274C362.306,246.137 358.063,224.412 349,208C339.019,189.926 298.843,149.859 285,138C267.404,122.926 231.745,86 231.745,86Z" style="fill:rgb(13,13,13);"/>
                    </g>
                </g>
                <g transform="matrix(-0.378129,0,0,0.239676,741.858,265.535)">
                    <path d="M231.745,86C231.745,86 191.827,122.926 174.225,138C160.377,149.859 120.187,189.926 110.203,208C101.137,224.412 96.893,246.137 105.201,274C111.867,296.354 167.049,331.541 196.233,299C225.416,266.459 211.68,309.233 197.233,346C182.786,382.767 218.705,357 229.5,357C240.295,357 276.442,382.767 262,346C247.558,309.233 233.827,266.459 263,299C292.173,331.541 347.336,296.354 354,274C362.306,246.137 358.063,224.412 349,208C339.019,189.926 298.843,149.859 285,138C267.404,122.926 231.745,86 231.745,86Z" style="fill:rgb(13,13,13);"/>
                </g>
            </g>
        </g>
    </g>
</svg>
