<?xml version="1.0" encoding="UTF-8" standalone="no"?>
<!DOCTYPE svg PUBLIC "-//W3C//DTD SVG 1.1//EN" "http://www.w3.org/Graphics/SVG/1.1/DTD/svg11.dtd">
<svg width="100%" height="100%" viewBox="0 0 767 1013" version="1.1" xmlns="http://www.w3.org/2000/svg" xmlns:xlink="http://www.w3.org/1999/xlink" xml:space="preserve" xmlns:serif="http://www.serif.com/" style="fill-rule:evenodd;clip-rule:evenodd;stroke-linejoin:round;stroke-miterlimit:2;">
    <g transform="matrix(1,0,0,1,-2126,-509.001)">
        <g id="ArtBoard1" transform="matrix(3.45504,0,0,5.60107,283.313,414.479)">
            <rect x="-82" y="-74" width="923" height="747" style="fill:none;"/>
            <g>
                <g transform="matrix(1.04265,0,0,0.429254,542.42,-42.2352)">
                    <g transform="matrix(0.277594,0,0,0.415924,-70.0637,-91.8844)">
                        <path d="M988,663.3C988,601.872 938.128,552 876.7,552L357.3,552C295.872,552 246,601.872 246,663.3L246,1428.7C246,1490.13 295.872,1540 357.3,1540L876.7,1540C938.128,1540 988,1490.13 988,1428.7L988,663.3Z" style="fill:rgb(173,207,221);"/>
                    </g>
                    <g transform="matrix(0.277594,0,0,0.415924,-77.0033,-81.4866)">
                        <path d="M988,663.3C988,601.872 938.128,552 876.7,552L357.3,552C295.872,552 246,601.872 246,663.3L246,1428.7C246,1490.13 295.872,1540 357.3,1540L876.7,1540C938.128,1540 988,1490.13 988,1428.7L988,663.3Z" style="fill:rgb(235,235,235);"/>
                    </g>
                </g>
                <g transform="matrix(1.18576,0,0,0.488172,540.886,-52.3329)">
                    <g transform="matrix(0.393295,0,0,0.596153,-116.121,-389.677)">
                        <text x="334.009px" y="1008px" style="font-family:'ArialRoundedMTBold', 'Arial Rounded MT Bold', sans-serif;font-size:83.763px;">J</text>
                    </g>
                    <g transform="matrix(0.0998264,0,0,0.116772,-67.1457,212.256)">
                        <path d="M912,393C912,393 964.132,313.593 979,294.51C993.868,275.428 1039.95,214.909 1040,210C1040.06,204.091 987.982,139.938 975,121.752C958.769,99.014 917.679,30.541 912,31C906.325,31.459 858.197,104.143 845,122.745C835.67,135.895 779.651,203.377 780,210C780.291,215.522 837.644,282.128 845,293C852.356,303.872 912,393 912,393Z" style="fill:rgb(225,75,75);"/>
                    </g>
                </g>
                <g transform="matrix(-1.18538,-4.1313e-16,4.48276e-16,-0.488019,741.974,271.725)">
                    <g transform="matrix(0.393295,0,0,0.596153,-116.121,-390.5)">
                        <text x="334.009px" y="1008px" style="font-family:'ArialRoundedMTBold', 'Arial Rounded MT Bold', sans-serif;font-size:83.763px;">J</text>
                    </g>
                    <g transform="matrix(0.0998578,-6.62111e-17,3.46262e-17,0.116809,-67.1702,212.242)">
                        <path d="M912,393C912,393 964.132,313.593 979,294.51C993.868,275.428 1039.95,214.909 1040,210C1040.06,204.091 987.982,139.938 975,121.752C958.769,99.014 917.679,30.541 912,31C906.325,31.459 858.197,104.143 845,122.745C835.67,135.895 779.651,203.377 780,210C780.291,215.522 837.644,282.128 845,293C852.356,303.872 912,393 912,393Z" style="fill:rgb(225,75,75);"/>
                    </g>
                </g>
                <g transform="matrix(1.13281,0,0,1.60879,524.924,18.5719)">
                    <g transform="matrix(0.276473,0,0,0.125715,-62.9645,-63.9061)">
                        <path d="M725.047,1135.5C736.808,1111.94 743,1085.21 743,1058C743,972.453 682.957,903 609,903C535.043,903 475,972.453 475,1058C475,1085.21 481.192,1111.94 492.953,1135.5L725.047,1135.5Z" style="fill:rgb(85,139,24);"/>
                    </g>
                    <g transform="matrix(0.293627,0,0,0.145715,-92.4973,-94.5602)">
                        <ellipse cx="674" cy="962" rx="69" ry="66" style="fill:rgb(199,182,153);"/>
                    </g>
                    <g transform="matrix(0.290972,0,0,0.109635,-628.241,-58.6203)">
                        <path d="M2580.8,912.276C2587.47,905.558 2591,897.854 2591,890C2591,866.268 2559.41,847 2520.5,847C2481.59,847 2450,866.268 2450,890C2450,897.854 2453.53,905.558 2460.2,912.276L2580.8,912.276Z" style="fill:rgb(85,139,24);"/>
                    </g>
                </g>
            </g>
        </g>
    </g>
</svg>
