<?xml version="1.0" encoding="UTF-8" standalone="no"?>
<!DOCTYPE svg PUBLIC "-//W3C//DTD SVG 1.1//EN" "http://www.w3.org/Graphics/SVG/1.1/DTD/svg11.dtd">
<svg width="100%" height="100%" viewBox="0 0 767 1013" version="1.1" xmlns="http://www.w3.org/2000/svg" xmlns:xlink="http://www.w3.org/1999/xlink" xml:space="preserve" xmlns:serif="http://www.serif.com/" style="fill-rule:evenodd;clip-rule:evenodd;stroke-linejoin:round;stroke-miterlimit:2;">
    <g transform="matrix(1,0,0,1,-1187,-509.001)">
        <g id="ArtBoard1" transform="matrix(3.45504,0,0,5.60107,283.313,414.479)">
            <rect x="-82" y="-74" width="923" height="747" style="fill:none;"/>
            <g>
                <g transform="matrix(1.04265,0,0,0.429254,270.643,-42.2352)">
                    <g transform="matrix(0.277594,0,0,0.415924,-70.0637,-91.8844)">
                        <path d="M988,663.3C988,601.872 938.128,552 876.7,552L357.3,552C295.872,552 246,601.872 246,663.3L246,1428.7C246,1490.13 295.872,1540 357.3,1540L876.7,1540C938.128,1540 988,1490.13 988,1428.7L988,663.3Z" style="fill:rgb(173,207,221);"/>
                    </g>
                    <g transform="matrix(0.277594,0,0,0.415924,-77.0033,-81.4866)">
                        <path d="M988,663.3C988,601.872 938.128,552 876.7,552L357.3,552C295.872,552 246,601.872 246,663.3L246,1428.7C246,1490.13 295.872,1540 357.3,1540L876.7,1540C938.128,1540 988,1490.13 988,1428.7L988,663.3Z" style="fill:rgb(235,235,235);"/>
                    </g>
                </g>
                <g transform="matrix(1.18576,0,0,0.488172,269.109,-52.3329)">
                    <g transform="matrix(0.393295,0,0,0.596153,-121.34,-389.677)">
                        <text x="334.009px" y="1008px" style="font-family:'ArialRoundedMTBold', 'Arial Rounded MT Bold', sans-serif;font-size:83.763px;">Q</text>
                    </g>
                    <g transform="matrix(0.0930236,0,0,0.14476,-30.0264,201.257)">
                        <path d="M577.5,393C579.147,389.193 634.443,323.368 646,310C665.094,287.913 718.32,227.088 717,180C715.68,132.912 678.341,102.246 649,103C619.659,103.754 599.146,116.463 587,144C580.257,159.288 579.252,158.664 577.5,159C575.748,158.664 572.944,159.961 568.002,144C558.857,114.463 535.35,101.754 506.016,101C476.681,100.246 439.35,132.912 438.031,180C436.711,227.088 494.813,298.047 509.017,312C518.311,321.129 576.526,390.332 577.5,393Z" style="fill:rgb(225,75,75);"/>
                    </g>
                </g>
                <g transform="matrix(-1.18538,-4.1313e-16,4.48276e-16,-0.488019,470.196,271.725)">
                    <g transform="matrix(0.393295,0,0,0.596153,-121.34,-393.182)">
                        <text x="334.009px" y="1008px" style="font-family:'ArialRoundedMTBold', 'Arial Rounded MT Bold', sans-serif;font-size:83.763px;">Q</text>
                    </g>
                    <g transform="matrix(0.0930529,-6.16991e-17,4.29253e-17,0.144805,-30.0474,201.239)">
                        <path d="M577.5,393C579.147,389.193 634.443,323.368 646,310C665.094,287.913 718.32,227.088 717,180C715.68,132.912 678.341,102.246 649,103C619.659,103.754 599.146,116.463 587,144C580.257,159.288 579.252,158.664 577.5,159C575.748,158.664 572.944,159.961 568.002,144C558.857,114.463 535.35,101.754 506.016,101C476.681,100.246 439.35,132.912 438.031,180C436.711,227.088 494.813,298.047 509.017,312C518.311,321.129 576.526,390.332 577.5,393Z" style="fill:rgb(225,75,75);"/>
                    </g>
                </g>
                <g transform="matrix(1.13281,0,0,1.60879,-57.3488,19.187)">
                    <g transform="matrix(0.276473,0,0,0.125715,211.128,-63.9061)">
                        <path d="M725.047,1135.5C736.808,1111.94 743,1085.21 743,1058C743,972.453 682.957,903 609,903C535.043,903 475,972.453 475,1058C475,1085.21 481.192,1111.94 492.953,1135.5L725.047,1135.5Z" style="fill:rgb(147,120,204);"/>
                    </g>
                    <g transform="matrix(0.293627,0,0,0.145715,181.595,-94.5602)">
                        <ellipse cx="674" cy="962" rx="69" ry="66" style="fill:rgb(199,182,153);"/>
                    </g>
                    <g transform="matrix(0.289432,0,0,0.125715,-77.1497,-76.6661)">
                        <circle cx="1575.5" cy="886.5" r="37.5" style="fill:rgb(216,219,41);"/>
                    </g>
                    <g transform="matrix(0.293627,0,0,0.145715,181.595,-94.5602)">
                        <path d="M674,896C712.082,896 735.114,921.26 739.057,938.706C739.452,940.453 749.178,964.488 737.273,962C730.925,960.673 725.201,944.742 713.85,935.897C702.198,926.817 687.823,922.165 677.943,922.416C666.918,922.696 648.402,923.539 632.847,935.056C622.208,942.933 614.692,961.725 609.847,962C597.121,962.722 610.505,936.025 612.886,930.941C615.242,925.911 635.918,896 674,896Z" style="fill:rgb(220,223,58);"/>
                    </g>
                </g>
            </g>
        </g>
    </g>
</svg>
