<?xml version="1.0" encoding="UTF-8" standalone="no"?><!DOCTYPE svg PUBLIC "-//W3C//DTD SVG 1.1//EN" "http://www.w3.org/Graphics/SVG/1.1/DTD/svg11.dtd"><svg width="100%" height="100%" viewBox="0 0 2397 3166" version="1.1" xmlns="http://www.w3.org/2000/svg" xmlns:xlink="http://www.w3.org/1999/xlink" xml:space="preserve" xmlns:serif="http://www.serif.com/" style="fill-rule:evenodd;clip-rule:evenodd;stroke-linejoin:round;stroke-miterlimit:2;"><g><g><path d="M2396.87,347.813c-0,-191.963 -155.85,-347.813 -347.813,-347.813l-1623.12,0c-191.963,0 -347.812,155.85 -347.812,347.813l-0,2391.87c-0,191.963 155.849,347.813 347.812,347.813l1623.12,-0c191.963,-0 347.813,-155.85 347.813,-347.813l-0,-2391.87Z" style="fill:#adcfdd;"/><path d="M2318.75,425.935c-0,-191.963 -155.85,-347.812 -347.813,-347.812l-1623.12,-0c-191.963,-0 -347.813,155.849 -347.813,347.812l-0,2391.88c-0,191.963 155.85,347.813 347.813,347.813l1623.12,-0c191.963,-0 347.813,-155.85 347.813,-347.813l-0,-2391.88Z" style="fill:#ebebeb;"/></g><g transform="matrix(3.125,0,0,3.125,-11145.3,370.31)"><text x="3630px" y="18.154px" style="font-family:'TrebuchetMS', 'Trebuchet MS', sans-serif;font-size:66.667px;">Zieht man die</text><text x="3630px" y="84.82px" style="font-family:'TrebuchetMS', 'Trebuchet MS', sans-serif;font-size:66.667px;">Sieben, darf man</text><text x="3630px" y="151.487px" style="font-family:'TrebuchetMS', 'Trebuchet MS', sans-serif;font-size:66.667px;">nochmal würfeln,</text><text x="3630px" y="218.154px" style="font-family:'TrebuchetMS', 'Trebuchet MS', sans-serif;font-size:66.667px;">muss die <tspan x="3904.74px 3944.06px " y="218.154px 218.154px ">Au</tspan>genzahl</text><text x="3630px" y="284.82px" style="font-family:'TrebuchetMS', 'Trebuchet MS', sans-serif;font-size:66.667px;">jedoch zurück</text><text x="3630px" y="351.487px" style="font-family:'TrebuchetMS', 'Trebuchet MS', sans-serif;font-size:66.667px;">laufen.</text></g></g></svg>